# xmcd
#
# Track frame offsets:
#	150
#	25306
#	38392
#	52832
#	69998
#	89987
#	106489
#	126005
#	140431
#	157688
#	174276
#	191896
#	215556
#	231430
#	258701
#	273235
#	292315
#	309572
#
# Disc length: 4434 seconds
#
# Revision: 1
# Processed by: cddbd v1.5.2PL0 Copyright (c) Steve Scherf et al.
# Submitted via: audiograbber 1.83.01
#
DISCID=0a115012
DTITLE=gemischt - Die Hits des Ostens Vol. 4
DYEAR=2009
DGENRE=
TTITLE0=Die Zöllner - Gib es zu
TTITLE1=Metropol - Und ich sehn´ mich nach dir
TTITLE2=Gaby Rückert - Augenblicke
TTITLE3=Hansi Bibl - So war ´s nicht immer
TTITLE4=Lift - Abendstunde, stille Stunde
TTITLE5=IC - Regenbogen
TTITLE6=André Herzberg - Kiefernlied Vol 1
TTITLE7=Ines Paulke - Hauch mir wieder Leben ein
TTITLE8=Dirk Michaelis - Schattenkreuze
TTITLE9=4 PS - Vor unserm Hause
TTITLE10=Wolfgang Ziegler - Lass deine Engel los
TTITLE11=Magdeburg - Was wird morgen sein
TTITLE12=Berluc - Blaue Stunde
TTITLE13=Enno - Karawane
TTITLE14=Thomas Natschinski - Ich lieb´ dich mehr und mehr
TTITLE15=Kerschowski - So´n Abend
TTITLE16=Veronika Fischer - Sommernachtsball
TTITLE17=Panta Rhei - Nachts
EXTD=
EXTT0=
EXTT1=
EXTT2=
EXTT3=
EXTT4=
EXTT5=
EXTT6=
EXTT7=
EXTT8=
EXTT9=
EXTT10=
EXTT11=
EXTT12=
EXTT13=
EXTT14=
EXTT15=
EXTT16=
EXTT17=
PLAYORDER=
